Coordinates
version=1
nRows=16
nColumns=36
inDegrees=yes

Units are S.I. units (second, meters, Newtons, ...)
If the header above contains a line with 'inDegrees', this indicates whether rotational values are in degrees (yes) or radians (no).

endheader
time	pelvis_tilt	pelvis_list	pelvis_rotation	pelvis_tx	pelvis_ty	pelvis_tz	hip_flexion_r	hip_adduction_r	hip_rotation_r	knee_angle_r	knee_angle_r_beta	ankle_angle_r	subtalar_angle_r	mtp_angle_r	hip_flexion_l	hip_adduction_l	hip_rotation_l	knee_angle_l	knee_angle_l_beta	ankle_angle_l	subtalar_angle_l	mtp_angle_l	lumbar_extension	lumbar_bending	lumbar_rotation	arm_flex_r	arm_add_r	arm_rot_r	elbow_flex_r	pro_sup_r	arm_flex_l	arm_add_l	arm_rot_l	elbow_flex_l	pro_sup_l
      0.00000000	     -7.88002455	      0.53030743	     -4.38771874	     -0.83573282	      1.24262308	     -0.07145522	     36.25634001	      1.12885640	      6.89410553	     50.92782159	      0.88885817	     11.65338474	    -20.39384596	     -6.23027990	     33.91967303	     -0.07170277	      1.17427014	     50.24088572	      0.87686887	     12.30748599	    -20.79724090	     -6.23027990	    -38.85920831	     -1.12326025	      1.13713241	      6.79168984	    -11.03160052	      2.00505295	     40.67841222	     77.48193217	      4.86432252	    -12.18405868	     17.95653673	     34.59320450	     65.06007356
      0.01666670	     -9.83118018	      1.47094847	     -3.67346411	     -0.83331347	      1.22719936	     -0.07050415	     39.81736062	      0.86309735	      7.71587453	     53.85645707	      0.93997250	     18.04688454	    -15.27609775	     -6.40794698	     38.31089820	      1.91305587	      1.84129165	     54.44950110	      0.95032307	     20.66707756	    -13.35282922	     -6.40794698	    -37.29676006	     -1.09119838	     -0.20599095	      8.59641780	    -10.05207933	      7.00407340	     33.12254960	     76.56562915	      5.85058627	    -12.61612288	     19.80068452	     30.61125158	     64.47169208
      0.03333330	    -10.10261129	      1.15878314	     -3.82110989	     -0.82664767	      1.21952638	     -0.06592642	     40.67727479	      1.35896059	      7.38773127	     55.68416099	      0.97187195	     20.39854435	    -16.04574427	     -6.72038083	     39.29257353	      1.48778186	      3.17261453	     56.42814714	      0.98485696	     23.34069102	    -13.25394896	     -6.72038083	    -37.98890808	     -1.05968934	      0.00873480	     10.74451957	    -10.76476351	     12.68675290	     33.09664927	     71.55890891	      8.40708543	    -13.73327070	     22.74581516	     30.37194277	     62.07227146
      0.05000000	    -10.17632203	      0.52738653	     -3.60013918	     -0.82068755	      1.20765600	     -0.07001411	     41.90042194	      1.82042195	      7.03064067	     58.63029786	      1.02329174	     22.70138968	    -15.66847174	     -6.76032826	     40.79421088	      1.54056787	      4.53796771	     59.79441871	      1.04360948	     25.70833474	    -13.78151861	     -6.76032826	    -39.15356316	     -0.14528955	      0.45281039	     12.05428691	    -11.52776366	     13.81116298	     34.79053252	     71.63716306	     10.15926369	    -13.57117042	     22.39038062	     31.22676956	     61.89124453
      0.06666670	     -9.46757177	     -0.14787436	     -3.34490115	     -0.80310432	      1.19968794	     -0.05773131	     41.74721992	      2.71878838	      6.35386695	     61.79777353	      1.07857462	     25.11125504	    -14.90030248	     -6.77561267	     40.62247657	      0.75881187	      5.53610390	     62.66054640	      1.09363285	     28.01472747	    -13.43179970	     -6.77561267	    -40.51073976	      0.02746332	      0.97388623	     12.90436596	    -11.21901720	     14.00752718	     35.88357228	     71.69218232	     11.07874521	    -13.57021975	     21.72153351	     31.25171069	     61.63062759
      0.08333330	     -8.81796799	     -0.37655925	     -3.33156110	     -0.78816780	      1.18587926	     -0.05360260	     41.60139018	      3.04993454	      5.56633432	     65.07239077	      1.13572747	     27.55949744	    -14.31835465	     -6.79209418	     40.28866880	      0.09070759	      5.80067361	     65.51704384	      1.14348813	     30.20596274	    -13.04384459	     -6.79209418	    -41.39840519	     -0.52229036	      1.23260486	     13.11918121	    -10.90668334	     13.75921553	     36.69245003	     71.70734835	     12.14054480	    -13.51924578	     20.83826843	     32.41645434	     61.35468536
      0.10000000	     -8.30558228	     -0.29233255	     -3.41062989	     -0.78376562	      1.18336522	     -0.04914181	     41.60768055	      3.16128099	      5.20467273	     67.69610018	      1.18151984	     29.17563370	    -13.62038296	     -6.83150675	     39.71433053	     -0.09176560	      5.78946793	     67.17348712	      1.17239852	     31.62449175	    -13.05014268	     -6.83150675	    -42.62858157	     -1.47539017	      1.53963817	     14.86598994	    -11.15984300	     13.36968292	     37.79360660	     71.19080441	     13.48412002	    -13.49885242	     19.31334857	     34.37433218	     60.98770909
      0.11666670	     -7.97786167	     -0.24989735	     -3.50563542	     -0.77993691	      1.17510637	     -0.04449485	     42.11279952	      3.52655893	      4.99565384	     70.47625202	      1.23004264	     30.51051924	    -13.00570180	     -6.84988464	     39.37083356	     -0.63849755	      5.53792230	     68.60518996	      1.19738645	     32.99827730	    -12.61021267	     -6.84988464	    -43.54608021	     -2.33990243	      1.69865121	     17.07173679	    -11.17917427	     13.58071597	     39.66201442	     71.10102550	     15.22001401	    -13.20689030	     17.92835811	     36.83822271	     60.92998415
      0.13333330	     -8.29708892	     -0.27202561	     -3.10050308	     -0.77492991	      1.16465153	     -0.04951423	     43.00134363	      3.50523892	      4.75624529	     72.71205823	      1.26906482	     31.39934611	    -12.89559673	     -6.98152278	     40.11343967	     -0.77955235	      5.46314449	     70.01729418	      1.22203232	     34.12009453	    -11.62118857	     -6.98152278	    -43.46348377	     -2.17315429	      1.12921858	     19.61143371	    -11.58603414	     12.89162533	     41.31068538	     76.80193655	     16.65133974	    -12.85075410	     13.50849940	     40.76555231	     64.75338461
      0.15000000	     -8.32048380	     -0.02900089	     -2.72613104	     -0.76444619	      1.15994769	     -0.06881627	     43.61070008	      2.52779436	      5.31107912	     74.94334512	      1.30800812	     31.60379241	    -12.70849774	     -7.04443605	     39.97825155	      0.40761600	      5.29511490	     70.94851702	      1.23828522	     35.11700835	    -11.85114776	     -7.04443605	    -43.15485761	     -1.50232195	      0.92045570	     21.07408120	    -12.69106301	      9.77276488	     44.01420052	     77.91388253	     19.02685186	    -12.03285127	     13.93659641	     44.75578082	     67.03432409
      0.16666670	     -8.56073685	      0.09250182	     -2.23884411	     -0.75178191	      1.15583523	     -0.07936201	     43.88299520	      1.14996710	      5.58314430	     76.55066093	      1.33606108	     31.50049004	    -12.33545772	     -7.05007003	     39.86790984	      2.10614287	      5.48231409	     71.82754099	      1.25362708	     36.22980745	    -12.16603235	     -7.05007003	    -42.17822907	     -0.36654311	      0.62591004	     23.98443579	    -14.73433013	      9.35903703	     46.26962211	     78.17491859	     21.98555613	    -11.21687718	     14.51309675	     48.85293611	     67.58540963
      0.18333330	     -9.25752108	      0.15085668	     -2.32260199	     -0.75661346	      1.15283925	     -0.09196783	     45.05709393	     -0.01850791	      6.11275080	     77.51604335	      1.35291018	     31.50159002	    -11.68405726	     -7.17514014	     41.16972225	      3.43181272	      5.18715419	     73.42932326	      1.28158346	     36.37466399	    -13.33045689	     -7.17514014	    -41.61922954	      0.91927864	      0.49928649	     27.65656368	    -17.74453507	      6.41652403	     54.19166988	     83.42237176	     25.33338565	    -10.50457649	     13.92706182	     58.44198940	     79.56150935
      0.20000000	     -9.54258300	      0.05804292	     -2.63676084	     -0.74203589	      1.14441246	     -0.09154552	     45.54977967	     -0.96760696	      6.15569870	     78.52856590	      1.37058203	     32.06614964	    -10.40157276	     -7.19390210	     41.78108695	      4.41693535	      5.32042958	     75.35321931	      1.31516178	     36.79264785	    -14.56243939	     -7.19390210	    -40.80437793	      2.34556169	      0.95905646	     32.10103657	    -21.19666225	      6.71999385	     63.65163663	     83.53476459	     29.52471439	     -9.39135051	     13.99490820	     68.15537088	     80.22588663
      0.21666670	     -9.72387537	     -0.16407254	     -2.22450724	     -0.72808586	      1.13975513	     -0.07338966	     44.89993726	     -0.92920096	      5.57183007	     78.88822395	      1.37685925	     33.54968843	    -10.10288778	     -7.21087703	     41.77690195	      4.17616814	      5.76890699	     76.57316508	      1.33645385	     37.74554592	    -14.08211827	     -7.21087703	    -39.93769252	      3.13129373	      1.33116512	     35.64615127	    -23.65282374	      6.77382581	     74.81220296	     83.90640318	     35.42837380	    -10.04559903	     14.92929760	     78.73741443	     81.04563446
      0.23333330	    -10.30549498	     -0.41488334	     -1.63728596	     -0.73043890	      1.13902969	     -0.06885489	     45.26775151	     -0.74863341	      4.46607327	     79.47447415	      1.38709125	     34.38100751	     -9.80689070	     -7.21731948	     42.72791733	      3.64587450	      6.42587830	     77.96334832	      1.36071712	     38.01707795	    -13.37862136	     -7.21731948	    -38.32424344	      3.20358513	      1.76170925	     40.32301032	    -25.16159769	      9.67374187	     84.54455971	     84.82222738	     42.92146317	    -10.32244228	     14.20713046	     84.87957322	     81.32875097
      0.25000000	    -11.12151220	     -0.19635315	     -1.13317681	     -0.71168783	      1.12838723	     -0.07408562	     45.79192797	     -1.30813340	      4.08701077	     80.94658005	      1.41278434	     35.85507593	     -7.96179408	     -7.22586387	     43.22335569	      3.77061029	      6.78756677	     78.93242493	      1.37763070	     39.00634225	    -12.07832191	     -7.22586387	    -34.78404274	      2.80192350	      2.15769567	     41.69222477	    -28.28506405	     11.57004504	     95.43956678	     85.61760603	     45.66217954	     -8.84185389	     12.94066009	     94.58478806	     81.50490725
